<mxfile host="app.diagrams.net" modified="2022-01-12T23:08:59.766Z" agent="5.0 (Macintosh; Intel Mac OS X 10_15_7) AppleWebKit/537.36 (KHTML, like Gecko) Chrome/97.0.4692.71 Safari/537.36" etag="JwJZA22yU3FUd1OiaRs4" version="16.2.6" type="github">
  <diagram id="kgpKYQtTHZ0yAKxKKP6v" name="Page-1">
    <mxGraphModel dx="946" dy="519" grid="1" gridSize="10" guides="1" tooltips="1" connect="1" arrows="1" fold="1" page="1" pageScale="1" pageWidth="850" pageHeight="1400" math="0" shadow="0">
      <root>
        <mxCell id="0" />
        <mxCell id="1" parent="0" />
        <mxCell id="gvETrFZi3rhWp5jrXpTd-1" value="User" style="shape=umlActor;verticalLabelPosition=bottom;verticalAlign=top;html=1;outlineConnect=0;" vertex="1" parent="1">
          <mxGeometry x="30" y="40" width="30" height="60" as="geometry" />
        </mxCell>
        <mxCell id="gvETrFZi3rhWp5jrXpTd-2" value="Movie Title One" style="rounded=0;whiteSpace=wrap;html=1;" vertex="1" parent="1">
          <mxGeometry x="160" y="20" width="100" height="40" as="geometry" />
        </mxCell>
        <mxCell id="gvETrFZi3rhWp5jrXpTd-3" value="Movie Title Two" style="rounded=0;whiteSpace=wrap;html=1;" vertex="1" parent="1">
          <mxGeometry x="300" y="20" width="100" height="40" as="geometry" />
        </mxCell>
        <mxCell id="gvETrFZi3rhWp5jrXpTd-4" value="Movie Title Three" style="rounded=0;whiteSpace=wrap;html=1;" vertex="1" parent="1">
          <mxGeometry x="160" y="80" width="100" height="40" as="geometry" />
        </mxCell>
        <mxCell id="gvETrFZi3rhWp5jrXpTd-5" value="Movie Title Four" style="rounded=0;whiteSpace=wrap;html=1;" vertex="1" parent="1">
          <mxGeometry x="300" y="80" width="100" height="40" as="geometry" />
        </mxCell>
        <mxCell id="gvETrFZi3rhWp5jrXpTd-8" value="" style="endArrow=classic;html=1;rounded=0;entryX=0;entryY=0.5;entryDx=0;entryDy=0;" edge="1" parent="1" source="gvETrFZi3rhWp5jrXpTd-1" target="gvETrFZi3rhWp5jrXpTd-12">
          <mxGeometry width="50" height="50" relative="1" as="geometry">
            <mxPoint x="400" y="290" as="sourcePoint" />
            <mxPoint x="450" y="240" as="targetPoint" />
            <Array as="points" />
          </mxGeometry>
        </mxCell>
        <mxCell id="gvETrFZi3rhWp5jrXpTd-13" value="Input" style="edgeLabel;html=1;align=center;verticalAlign=middle;resizable=0;points=[];fontSize=17;" vertex="1" connectable="0" parent="gvETrFZi3rhWp5jrXpTd-8">
          <mxGeometry x="0.1805" y="-2" relative="1" as="geometry">
            <mxPoint x="-7" y="-22" as="offset" />
          </mxGeometry>
        </mxCell>
        <mxCell id="gvETrFZi3rhWp5jrXpTd-12" value="" style="swimlane;startSize=0;" vertex="1" parent="1">
          <mxGeometry x="140" y="10" width="270" height="120" as="geometry">
            <mxRectangle x="140" y="10" width="50" height="40" as="alternateBounds" />
          </mxGeometry>
        </mxCell>
        <mxCell id="gvETrFZi3rhWp5jrXpTd-41" style="edgeStyle=orthogonalEdgeStyle;rounded=0;orthogonalLoop=1;jettySize=auto;html=1;exitX=0.5;exitY=1;exitDx=0;exitDy=0;entryX=0.5;entryY=0;entryDx=0;entryDy=0;" edge="1" parent="1" source="gvETrFZi3rhWp5jrXpTd-16" target="gvETrFZi3rhWp5jrXpTd-19">
          <mxGeometry relative="1" as="geometry" />
        </mxCell>
        <mxCell id="gvETrFZi3rhWp5jrXpTd-16" value="ACTION: GENERATE BUTTON" style="whiteSpace=wrap;html=1;" vertex="1" parent="1">
          <mxGeometry x="211" y="150" width="130" height="60" as="geometry" />
        </mxCell>
        <mxCell id="gvETrFZi3rhWp5jrXpTd-19" value="INPUT VALIDATION" style="whiteSpace=wrap;html=1;" vertex="1" parent="1">
          <mxGeometry x="216" y="230" width="124" height="50" as="geometry" />
        </mxCell>
        <mxCell id="gvETrFZi3rhWp5jrXpTd-21" value="" style="strokeWidth=2;html=1;shape=mxgraph.flowchart.annotation_2;align=left;labelPosition=right;pointerEvents=1;rotation=90;" vertex="1" parent="1">
          <mxGeometry x="257.5" y="247.5" width="42.5" height="107.5" as="geometry" />
        </mxCell>
        <mxCell id="gvETrFZi3rhWp5jrXpTd-72" value="" style="edgeStyle=orthogonalEdgeStyle;rounded=0;orthogonalLoop=1;jettySize=auto;html=1;fontSize=12;" edge="1" parent="1" source="gvETrFZi3rhWp5jrXpTd-22" target="gvETrFZi3rhWp5jrXpTd-48">
          <mxGeometry relative="1" as="geometry" />
        </mxCell>
        <mxCell id="gvETrFZi3rhWp5jrXpTd-22" value="SUCESS" style="strokeWidth=2;html=1;shape=mxgraph.flowchart.decision;whiteSpace=wrap;" vertex="1" parent="1">
          <mxGeometry x="290" y="320" width="90" height="90" as="geometry" />
        </mxCell>
        <mxCell id="gvETrFZi3rhWp5jrXpTd-26" style="edgeStyle=orthogonalEdgeStyle;rounded=0;orthogonalLoop=1;jettySize=auto;html=1;" edge="1" parent="1" source="gvETrFZi3rhWp5jrXpTd-23">
          <mxGeometry relative="1" as="geometry">
            <mxPoint x="110" y="70" as="targetPoint" />
            <Array as="points">
              <mxPoint x="110" y="430" />
            </Array>
          </mxGeometry>
        </mxCell>
        <mxCell id="gvETrFZi3rhWp5jrXpTd-23" value="FAILURE" style="strokeWidth=2;html=1;shape=mxgraph.flowchart.decision;whiteSpace=wrap;" vertex="1" parent="1">
          <mxGeometry x="180" y="320" width="90" height="90" as="geometry" />
        </mxCell>
        <mxCell id="gvETrFZi3rhWp5jrXpTd-44" value="CONSOLE ERROR LOGGED" style="ellipse;whiteSpace=wrap;html=1;labelBackgroundColor=none;fontSize=12;" vertex="1" parent="1">
          <mxGeometry x="90" y="575" width="120" height="80" as="geometry" />
        </mxCell>
        <mxCell id="gvETrFZi3rhWp5jrXpTd-45" value="" style="edgeStyle=orthogonalEdgeStyle;rounded=0;orthogonalLoop=1;jettySize=auto;html=1;fontSize=12;" edge="1" parent="1" source="gvETrFZi3rhWp5jrXpTd-38" target="gvETrFZi3rhWp5jrXpTd-44">
          <mxGeometry relative="1" as="geometry" />
        </mxCell>
        <mxCell id="gvETrFZi3rhWp5jrXpTd-48" value="&lt;meta charset=&quot;utf-8&quot;&gt;&lt;span style=&quot;color: rgb(0, 0, 0); font-family: helvetica; font-size: 12px; font-style: normal; font-weight: 400; letter-spacing: normal; text-align: center; text-indent: 0px; text-transform: none; word-spacing: 0px; background-color: rgb(248, 249, 250); display: inline; float: none;&quot;&gt;OMDb API CALL&lt;/span&gt;" style="whiteSpace=wrap;html=1;aspect=fixed;labelBackgroundColor=none;fontSize=12;" vertex="1" parent="1">
          <mxGeometry x="295" y="440" width="80" height="80" as="geometry" />
        </mxCell>
        <mxCell id="gvETrFZi3rhWp5jrXpTd-37" value="" style="strokeWidth=2;html=1;shape=mxgraph.flowchart.annotation_2;align=left;labelPosition=right;pointerEvents=1;labelBackgroundColor=none;rotation=90;" vertex="1" parent="1">
          <mxGeometry x="307.5" y="497.5" width="55" height="100" as="geometry" />
        </mxCell>
        <mxCell id="gvETrFZi3rhWp5jrXpTd-38" value="FAILURE" style="strokeWidth=2;html=1;shape=mxgraph.flowchart.decision;whiteSpace=wrap;" vertex="1" parent="1">
          <mxGeometry x="236" y="570" width="94" height="90" as="geometry" />
        </mxCell>
        <mxCell id="gvETrFZi3rhWp5jrXpTd-51" value="" style="edgeStyle=orthogonalEdgeStyle;rounded=0;orthogonalLoop=1;jettySize=auto;html=1;fontSize=12;" edge="1" parent="1" source="gvETrFZi3rhWp5jrXpTd-39" target="gvETrFZi3rhWp5jrXpTd-50">
          <mxGeometry relative="1" as="geometry" />
        </mxCell>
        <mxCell id="gvETrFZi3rhWp5jrXpTd-39" value="SUCESS" style="strokeWidth=2;html=1;shape=mxgraph.flowchart.decision;whiteSpace=wrap;" vertex="1" parent="1">
          <mxGeometry x="336" y="570" width="94" height="90" as="geometry" />
        </mxCell>
        <mxCell id="gvETrFZi3rhWp5jrXpTd-50" value="GENERATE QUIZ QUESTION FROM RESPONSE" style="whiteSpace=wrap;html=1;aspect=fixed;labelBackgroundColor=none;fontSize=12;" vertex="1" parent="1">
          <mxGeometry x="343" y="690" width="80" height="80" as="geometry" />
        </mxCell>
        <mxCell id="gvETrFZi3rhWp5jrXpTd-52" value="" style="strokeWidth=2;html=1;shape=mxgraph.flowchart.annotation_2;align=left;labelPosition=right;pointerEvents=1;labelBackgroundColor=none;fontSize=12;rotation=90;" vertex="1" parent="1">
          <mxGeometry x="358" y="740" width="50" height="100" as="geometry" />
        </mxCell>
        <mxCell id="gvETrFZi3rhWp5jrXpTd-60" style="edgeStyle=orthogonalEdgeStyle;rounded=0;orthogonalLoop=1;jettySize=auto;html=1;exitX=0.5;exitY=1;exitDx=0;exitDy=0;fontSize=12;entryX=0.5;entryY=0;entryDx=0;entryDy=0;" edge="1" parent="1" source="gvETrFZi3rhWp5jrXpTd-53" target="gvETrFZi3rhWp5jrXpTd-61">
          <mxGeometry relative="1" as="geometry">
            <mxPoint x="410" y="1110" as="targetPoint" />
          </mxGeometry>
        </mxCell>
        <mxCell id="gvETrFZi3rhWp5jrXpTd-53" value="NEXT" style="rhombus;whiteSpace=wrap;html=1;labelBackgroundColor=none;fontSize=12;" vertex="1" parent="1">
          <mxGeometry x="390" y="810" width="80" height="80" as="geometry" />
        </mxCell>
        <mxCell id="gvETrFZi3rhWp5jrXpTd-55" style="edgeStyle=orthogonalEdgeStyle;rounded=0;orthogonalLoop=1;jettySize=auto;html=1;fontSize=12;" edge="1" parent="1" source="gvETrFZi3rhWp5jrXpTd-54">
          <mxGeometry relative="1" as="geometry">
            <mxPoint x="80" y="70" as="targetPoint" />
            <Array as="points">
              <mxPoint x="80" y="850" />
            </Array>
          </mxGeometry>
        </mxCell>
        <mxCell id="gvETrFZi3rhWp5jrXpTd-54" value="RESET" style="rhombus;whiteSpace=wrap;html=1;labelBackgroundColor=none;fontSize=12;" vertex="1" parent="1">
          <mxGeometry x="295" y="810" width="80" height="80" as="geometry" />
        </mxCell>
        <mxCell id="gvETrFZi3rhWp5jrXpTd-58" value="REPEAT" style="endArrow=classic;startArrow=classic;html=1;rounded=0;fontSize=12;exitX=1;exitY=0.5;exitDx=0;exitDy=0;entryX=1;entryY=0.5;entryDx=0;entryDy=0;" edge="1" parent="1" source="gvETrFZi3rhWp5jrXpTd-53" target="gvETrFZi3rhWp5jrXpTd-50">
          <mxGeometry width="50" height="50" relative="1" as="geometry">
            <mxPoint x="470" y="1020" as="sourcePoint" />
            <mxPoint x="520" y="970" as="targetPoint" />
            <Array as="points">
              <mxPoint x="520" y="850" />
              <mxPoint x="520" y="730" />
            </Array>
          </mxGeometry>
        </mxCell>
        <mxCell id="gvETrFZi3rhWp5jrXpTd-61" value="DISPLAY QUIZ RESULTS" style="whiteSpace=wrap;html=1;labelBackgroundColor=none;" vertex="1" parent="1">
          <mxGeometry x="370" y="910" width="120" height="60" as="geometry" />
        </mxCell>
        <mxCell id="gvETrFZi3rhWp5jrXpTd-69" value="" style="endArrow=classic;html=1;rounded=0;fontSize=12;exitX=0.5;exitY=1;exitDx=0;exitDy=0;" edge="1" parent="1" source="gvETrFZi3rhWp5jrXpTd-12">
          <mxGeometry width="50" height="50" relative="1" as="geometry">
            <mxPoint x="400" y="100" as="sourcePoint" />
            <mxPoint x="275" y="150" as="targetPoint" />
          </mxGeometry>
        </mxCell>
        <mxCell id="gvETrFZi3rhWp5jrXpTd-73" value="" style="endArrow=classic;html=1;rounded=0;fontSize=12;entryX=0.5;entryY=1;entryDx=0;entryDy=0;exitX=0.5;exitY=1;exitDx=0;exitDy=0;" edge="1" parent="1" source="gvETrFZi3rhWp5jrXpTd-61" target="gvETrFZi3rhWp5jrXpTd-54">
          <mxGeometry width="50" height="50" relative="1" as="geometry">
            <mxPoint x="335" y="980" as="sourcePoint" />
            <mxPoint x="320" y="900" as="targetPoint" />
            <Array as="points">
              <mxPoint x="340" y="1010" />
            </Array>
          </mxGeometry>
        </mxCell>
      </root>
    </mxGraphModel>
  </diagram>
</mxfile>
